<svg xmlns="http://www.w3.org/2000/svg" viewBox="0 0 1024 1024" width="1024" height="1024">
  <!-- Beto, o Fantasminha (versão 2D do mascote 3D). Arte dentro da zona segura de 80% do maskable. -->
  <defs>
    <radialGradient id="glow" cx="50%" cy="45%" r="50%">
      <stop offset="0%"   stop-color="#ffffff" stop-opacity="0.14"/>
      <stop offset="100%" stop-color="#ffffff" stop-opacity="0"/>
    </radialGradient>
    <linearGradient id="shade" x1="0" y1="0" x2="1" y2="1">
      <stop offset="0%"   stop-color="#FFFFFF"/>
      <stop offset="100%" stop-color="#E4DFD3"/>
    </linearGradient>
  </defs>

  <rect width="1024" height="1024" fill="#000000"/>
  <circle cx="512" cy="480" r="430" fill="url(#glow)"/>

  <g transform="translate(202 189) scale(3.1)">
    <path d="M100 18c-44 0-74 32-74 76v86c0 6 7 9 11 5l10-9 12 11c3 3 8 3 11 0l12-11 12 11c3 3 8 3 11 0l12-11 12 11c3 3 8 3 11 0l12-11 10 9c4 4 11 1 11-5V94c0-44-30-76-74-76z" fill="url(#shade)"/>
    <ellipse cx="73" cy="96" rx="10" ry="15" fill="#16140F"/>
    <ellipse cx="127" cy="96" rx="10" ry="15" fill="#16140F"/>
    <circle cx="77" cy="89" r="3.5" fill="#FFFFFF"/>
    <circle cx="131" cy="89" r="3.5" fill="#FFFFFF"/>
    <ellipse cx="52" cy="122" rx="11" ry="6" fill="#FF9A6B"/>
    <ellipse cx="148" cy="122" rx="11" ry="6" fill="#FF9A6B"/>
    <ellipse cx="100" cy="124" rx="7" ry="8.5" fill="#FF6B2C"/>
  </g>
</svg>
